# xmcd
#
# Track frame offsets: 
#        150
#        14484
#        26795
#        40875
#        55352
#        73917
#        87158
#        101715
#        116532
#        130315
#        144164
#        159288
#        174628
#        188465
#        204020
#        217996
#        231949
#        246418
#        259553
#        273764
#        287746
#        304957
#        324159
#        339187
#
# Disc length: 4716 seconds
#
# Revision: 1
# Processed by: cddbd v1.5.2PL0 Copyright (c) Steve Scherf et al.
# Submitted via: ExactAudioCopy v0.99pb5
#
DISCID=50126a18
DTITLE=Frank Sinatra - All or nothing at all - CD2 Time After Time
DYEAR=1900
DGENRE=
TTITLE0=If you are but a dream
TTITLE1=Saturday night (is the loneliest night of the week)
TTITLE2=I dream of you (more than you dream I do)
TTITLE3=I fall in love too easily
TTITLE4=Ol' man river
TTITLE5=When your lover has gone
TTITLE6=My melancholy baby
TTITLE7=Where or when
TTITLE8=I should care
TTITLE9=Dream (when you're feeling blue)
TTITLE10=Jesus is a rock in the weary land
TTITLE11=Someone to watch over me
TTITLE12=You go to my head
TTITLE13=Nancy (with the laughing face)
TTITLE14=You are too beautiful
TTITLE15=Oh, what it seemed to be
TTITLE16=(I don't stand) A ghost of a chance (with you)
TTITLE17=Why shouldn't I?
TTITLE18=They say it's wonderful
TTITLE19=The girl that I marry
TTITLE20=Soliloquy | Part 1
TTITLE21=Soliloquy | Part 2
TTITLE22=The things we did last summer
TTITLE23=Time after time
EXTD=
EXTT0=
EXTT1=
EXTT2=
EXTT3=
EXTT4=
EXTT5=
EXTT6=
EXTT7=
EXTT8=
EXTT9=
EXTT10=
EXTT11=
EXTT12=
EXTT13=
EXTT14=
EXTT15=
EXTT16=
EXTT17=
EXTT18=
EXTT19=
EXTT20=
EXTT21=
EXTT22=
EXTT23=
PLAYORDER=
